# xmcd CD database file
#
# Track frame offsets:
#	150
#	21968
#	43448
#	61520
#	82140
#	97890
#	119260
#	139463
#	166645
#	184660
#
# Disc length: 2931 seconds
#
# Revision: 0
# Processed by: cddbd v1.5.2PL0 Copyright (c) Steve Scherf et al.
# Submitted via: CDex 1.70beta2
#
DISCID=810b710a
DTITLE=David Arkenstone - Citizen Of Time - 時の旅人　-
DYEAR=1990
DGENRE=New Age
TTITLE0=Top Of The World - 地上の頂き -
TTITLE1=The Great Wall - 万里の長城 -
TTITLE2=Firestix - 焚火 -
TTITLE3=Out Of The Forest And Into The Trees - 森を抜け、そして木ぎの中へ -
TTITLE4=The Malabar Caves - マラバ洞窟 -
TTITLE5=Voices Of The Anasazi - アナサジ族の声 -
TTITLE6=The Northern Lights - 北極光 -
TTITLE7=Rumours Of Egypt - エジプトのささやき -
TTITLE8=Splendor Of The Sun - 太陽の輝き -
TTITLE9=Explorers - 冒険者 -
EXTD=YEAR: 1990
EXTT0=
EXTT1=
EXTT2=
EXTT3=
EXTT4=
EXTT5=
EXTT6=
EXTT7=
EXTT8=
EXTT9=
PLAYORDER=
